<svg id="Layer_1" height="512" viewBox="0 0 256 256" width="512" xmlns="http://www.w3.org/2000/svg"><g><path d="m204.632 171.228h-153.264c-1.381 0-2.5-1.119-2.5-2.5v-96.5c0-1.381 1.119-2.5 2.5-2.5h44.711c1.381 0 2.5 1.119 2.5 2.5s-1.119 2.5-2.5 2.5h-42.211v91.5h148.265v-91.5h-42.211c-1.381 0-2.5-1.119-2.5-2.5s1.119-2.5 2.5-2.5h44.711c1.381 0 2.5 1.119 2.5 2.5v96.5c-.001 1.38-1.12 2.5-2.501 2.5z" fill="#ebe7f2"/><g fill="#846f75"><path d="m169.921 57.105h45.131c1.378 0 2.5 1.121 2.5 2.5v109.122c0 1.381 1.119 2.5 2.5 2.5s2.5-1.119 2.5-2.5v-109.122c0-4.136-3.364-7.5-7.5-7.5h-45.131c-1.381 0-2.5 1.119-2.5 2.5s1.12 2.5 2.5 2.5z"/><path d="m35.947 171.228c1.381 0 2.5-1.119 2.5-2.5v-109.123c0-1.379 1.122-2.5 2.5-2.5h45.131c1.381 0 2.5-1.119 2.5-2.5s-1.119-2.5-2.5-2.5h-45.131c-4.136 0-7.5 3.364-7.5 7.5v109.122c0 1.381 1.119 2.501 2.5 2.501z"/><path d="m231.5 179.605h-207c-4.136 0-7.5 3.364-7.5 7.5v9.289c0 4.136 3.364 7.5 7.5 7.5h207c4.136 0 7.5-3.364 7.5-7.5v-9.289c0-4.135-3.364-7.5-7.5-7.5zm2.5 16.79c0 1.379-1.122 2.5-2.5 2.5h-207c-1.378 0-2.5-1.121-2.5-2.5v-9.289c0-1.379 1.122-2.5 2.5-2.5h207c1.378 0 2.5 1.121 2.5 2.5z"/></g><path d="m149.36 193.917h-42.72c-1.381 0-2.5-1.119-2.5-2.5s1.119-2.5 2.5-2.5h42.72c1.381 0 2.5 1.119 2.5 2.5s-1.119 2.5-2.5 2.5z" fill="#ebe7f2"/><path d="m128 161.75c-1.381 0-2.5-1.119-2.5-2.5v-76.393c0-1.381 1.119-2.5 2.5-2.5s2.5 1.119 2.5 2.5v76.393c0 1.381-1.119 2.5-2.5 2.5z" fill="#ebe7f2"/><path d="m192.75 94.25h-11.75c-1.381 0-2.5-1.119-2.5-2.5s1.119-2.5 2.5-2.5h11.75c1.381 0 2.5 1.119 2.5 2.5s-1.119 2.5-2.5 2.5z" fill="#ed9abc"/><path d="m159.36 94.25h-21.75c-1.381 0-2.5-1.119-2.5-2.5s1.119-2.5 2.5-2.5h21.75c1.381 0 2.5 1.119 2.5 2.5s-1.119 2.5-2.5 2.5z" fill="#ebe7f2"/><path d="m192.75 109h-11.75c-1.381 0-2.5-1.119-2.5-2.5s1.119-2.5 2.5-2.5h11.75c1.381 0 2.5 1.119 2.5 2.5s-1.119 2.5-2.5 2.5z" fill="#ed9abc"/><path d="m149.36 109h-11.75c-1.381 0-2.5-1.119-2.5-2.5s1.119-2.5 2.5-2.5h11.75c1.381 0 2.5 1.119 2.5 2.5s-1.119 2.5-2.5 2.5z" fill="#ebe7f2"/><path d="m192.75 123.75h-11.75c-1.381 0-2.5-1.119-2.5-2.5s1.119-2.5 2.5-2.5h11.75c1.381 0 2.5 1.119 2.5 2.5s-1.119 2.5-2.5 2.5z" fill="#ed9abc"/><path d="m166.5 123.75h-28.89c-1.381 0-2.5-1.119-2.5-2.5s1.119-2.5 2.5-2.5h28.89c1.381 0 2.5 1.119 2.5 2.5s-1.119 2.5-2.5 2.5z" fill="#ebe7f2"/><path d="m192.75 140.375h-55.14c-1.381 0-2.5-1.119-2.5-2.5s1.119-2.5 2.5-2.5h55.14c1.381 0 2.5 1.119 2.5 2.5s-1.119 2.5-2.5 2.5z" fill="#ebe7f2"/><g fill="#ed9abc"><path d="m192.75 157h-24c-1.381 0-2.5-1.119-2.5-2.5s1.119-2.5 2.5-2.5h24c1.381 0 2.5 1.119 2.5 2.5s-1.119 2.5-2.5 2.5z"/><g><path d="m159.921 16.51h-63.842c-1.381 0-2.5 1.119-2.5 2.5v63.848c0 1.381 1.119 2.5 2.5 2.5h63.843c1.381 0 2.5-1.119 2.5-2.5v-63.848c-.001-1.381-1.12-2.5-2.501-2.5zm-2.5 5v12.515h-58.842v-12.515zm-58.842 58.847v-41.333h58.843v41.333z"/><path d="m114.532 42.547h-9.607c-1.381 0-2.5 1.119-2.5 2.5v9.607c0 1.381 1.119 2.5 2.5 2.5h9.607c1.381 0 2.5-1.119 2.5-2.5v-9.607c0-1.381-1.119-2.5-2.5-2.5zm-2.5 9.607h-4.607v-4.607h4.607z"/><path d="m132.804 42.547h-9.607c-1.381 0-2.5 1.119-2.5 2.5v9.607c0 1.381 1.119 2.5 2.5 2.5h9.607c1.381 0 2.5-1.119 2.5-2.5v-9.607c0-1.381-1.119-2.5-2.5-2.5zm-2.5 9.607h-4.607v-4.607h4.607z"/><path d="m151.076 42.547h-9.607c-1.381 0-2.5 1.119-2.5 2.5v9.607c0 1.381 1.119 2.5 2.5 2.5h9.607c1.381 0 2.5-1.119 2.5-2.5v-9.607c0-1.381-1.119-2.5-2.5-2.5zm-2.5 9.607h-4.607v-4.607h4.607z"/><path d="m114.532 60.678h-9.607c-1.381 0-2.5 1.119-2.5 2.5v9.607c0 1.381 1.119 2.5 2.5 2.5h9.607c1.381 0 2.5-1.119 2.5-2.5v-9.607c0-1.381-1.119-2.5-2.5-2.5zm-2.5 9.607h-4.607v-4.607h4.607z"/><path d="m132.804 60.678h-9.607c-1.381 0-2.5 1.119-2.5 2.5v9.607c0 1.381 1.119 2.5 2.5 2.5h9.607c1.381 0 2.5-1.119 2.5-2.5v-9.607c0-1.381-1.119-2.5-2.5-2.5zm-2.5 9.607h-4.607v-4.607h4.607z"/><path d="m151.076 60.678h-9.607c-1.381 0-2.5 1.119-2.5 2.5v9.607c0 1.381 1.119 2.5 2.5 2.5h9.607c1.381 0 2.5-1.119 2.5-2.5v-9.607c0-1.381-1.119-2.5-2.5-2.5zm-2.5 9.607h-4.607v-4.607h4.607z"/></g><path d="m101.07 117.978h-18.853v-16.353h18.853c1.381 0 2.5-1.119 2.5-2.5s-1.119-2.5-2.5-2.5h-8.177v-4.227c0-1.381-1.119-2.5-2.5-2.5s-2.5 1.119-2.5 2.5v4.227h-8.176c-1.381 0-2.5 1.119-2.5 2.5v21.353c0 1.381 1.119 2.5 2.5 2.5h18.853v16.353h-18.853c-1.381 0-2.5 1.119-2.5 2.5s1.119 2.5 2.5 2.5h8.176v4.228c0 1.381 1.119 2.5 2.5 2.5s2.5-1.119 2.5-2.5v-4.228h8.177c1.381 0 2.5-1.119 2.5-2.5v-21.353c0-1.381-1.119-2.5-2.5-2.5z"/></g></g></svg>