<svg height="512pt" viewBox="-11 0 512 512" width="512pt" xmlns="http://www.w3.org/2000/svg"><path d="m464.042969 376.835938c16.597656-33.039063 25.957031-70.34375 25.957031-109.835938 0-135.308594-109.691406-245-245-245s-245 109.691406-245 245c0 39.492188 9.359375 76.796875 25.957031 109.835938zm0 0" fill="#f948b4"/><path d="m465.035156 71.292969h-440.070312v303.542969c39.886718 81.238281 123.425781 137.164062 220.035156 137.164062s180.148438-55.925781 220.035156-137.164062zm0 0" fill="#3d4ec6"/><path d="m91.800781 71.292969h-66.835937v303.542969c15.949218 32.484374 38.882812 60.914062 66.835937 83.347656zm0 0" fill="#3342ae"/><path d="m24.964844 47.027344h440.070312v26.265625h-440.070312zm0 0" fill="#d5f1fe"/><path d="m141.921875 73.292969h-116.957031v-26.265625h92.210937c13.667969 0 24.746094 11.757812 24.746094 26.265625zm0 0" fill="#11dfef"/><path d="m24.964844 47.027344h66.835937v26.265625h-66.835937zm0 0" fill="#0ac6e5"/><path d="m463.691406 0c-8.492187 0-425.023437 0-437.382812 0-.742188 0-1.34375.601562-1.34375 1.34375v47.207031h440.070312v-47.207031c0-.742188-.601562-1.34375-1.34375-1.34375zm0 0" fill="#615df9"/><path d="m91.800781 12c0-6.601562 5.398438-12 12-12-43.664062 0-74.277343 0-77.492187 0-.742188 0-1.34375.601562-1.34375 1.34375v47.207031h66.835937zm0 0" fill="#3342ae"/><path d="m61.300781 33.808594c-5.507812 0-10-4.488282-10-10 0-4.769532 3.351563-8.859375 8.050781-9.8125 6.117188-1.230469 11.949219 3.472656 11.949219 9.8125 0 5.554687-4.542969 10-10 10zm0 0" fill="#f948b4"/><path d="m91.800781 33.808594c-5.429687 0-10-4.421875-10-10 0-6.324219 5.816407-11.046875 11.949219-9.8125 4.84375.984375 8.050781 5.214844 8.050781 9.8125 0 5.507812-4.488281 10-10 10zm0 0" fill="#fecd0a"/><path d="m122.300781 33.808594c-5.429687 0-10-4.421875-10-10 0-6.355469 5.84375-11.042969 11.949219-9.8125 4.84375.984375 8.050781 5.21875 8.050781 9.8125 0 5.507812-4.488281 10-10 10zm0 0" fill="#39df74"/><path d="m103.050781 106.472656h-30.5c-4.140625 0-7.5-3.359375-7.5-7.5 0-4.144531 3.359375-7.5 7.5-7.5h30.5c4.140625 0 7.5 3.355469 7.5 7.5 0 4.140625-3.359375 7.5-7.5 7.5zm0 0" fill="#e6f7fe"/><path d="m86.21875 98.972656c0-4.144531 3.355469-7.5 7.5-7.5h-21.167969c-4.140625 0-7.5 3.355469-7.5 7.5 0 4.140625 3.359375 7.5 7.5 7.5h21.167969c-4.144531 0-7.5-3.359375-7.5-7.5zm0 0" fill="#d5f1fe"/><path d="m409.804688 73.292969c-17.957032 0-143.023438 0-169.347657 0-8.429687 0-15.261719 6.832031-15.261719 15.261719 0 8.425781 6.832032 15.257812 15.261719 15.257812h169.347657c8.425781 0 15.257812-6.832031 15.257812-15.257812 0-8.429688-6.832031-15.261719-15.257812-15.261719zm0 0" fill="#11dfef"/><path d="m303.53125 88.550781c0-8.425781 6.832031-15.257812 15.257812-15.257812-33.636718 0-66.300781 0-78.332031 0-8.429687 0-15.261719 6.832031-15.261719 15.257812 0 8.429688 6.832032 15.261719 15.261719 15.261719h78.332031c-8.425781 0-15.257812-6.832031-15.257812-15.261719zm0 0" fill="#0ac6e5"/><path d="m345.117188 181.074219h-77.070313c-5.523437 0-10-4.476563-10-10 0-5.519531 4.476563-10 10-10h77.070313c5.523437 0 10 4.480469 10 10 0 5.523437-4.476563 10-10 10zm0 0" fill="#aeaeff"/><g fill="#8181fc"><path d="m318.789062 171.074219c0-5.519531 4.476563-10 10-10h-60.742187c-5.523437 0-10 4.480469-10 10 0 5.523437 4.476563 10 10 10h60.742187c-5.523437 0-10-4.476563-10-10zm0 0"/><path d="m416.34375 220.839844h-150.796875c-4.140625 0-7.5-3.355469-7.5-7.5 0-4.144532 3.359375-7.5 7.5-7.5h150.796875c4.144531 0 7.5 3.355468 7.5 7.5 0 4.144531-3.355469 7.5-7.5 7.5zm0 0"/><path d="m416.34375 286.523438h-150.796875c-4.140625 0-7.5-3.359376-7.5-7.5 0-4.144532 3.359375-7.5 7.5-7.5h150.796875c4.144531 0 7.5 3.355468 7.5 7.5 0 4.140624-3.355469 7.5-7.5 7.5zm0 0"/><path d="m416.34375 253.683594h-150.796875c-4.140625 0-7.5-3.359375-7.5-7.5 0-4.144532 3.359375-7.5 7.5-7.5h150.796875c4.144531 0 7.5 3.355468 7.5 7.5 0 4.140625-3.355469 7.5-7.5 7.5zm0 0"/><path d="m416.34375 319.363281h-150.796875c-4.140625 0-7.5-3.355469-7.5-7.5 0-4.140625 3.359375-7.5 7.5-7.5h150.796875c4.144531 0 7.5 3.359375 7.5 7.5 0 4.144531-3.355469 7.5-7.5 7.5zm0 0"/><path d="m416.34375 352.207031h-150.796875c-4.140625 0-7.5-3.359375-7.5-7.5 0-4.144531 3.359375-7.5 7.5-7.5h150.796875c4.144531 0 7.5 3.355469 7.5 7.5 0 4.140625-3.355469 7.5-7.5 7.5zm0 0"/></g><path d="m416.34375 385.046875h-12.164062c-4.144532 0-7.5-3.355469-7.5-7.5s3.355468-7.5 7.5-7.5h12.164062c4.144531 0 7.5 3.355469 7.5 7.5s-3.355469 7.5-7.5 7.5zm0 0" fill="#aeaeff"/><path d="m336.445312 385.046875h-70.898437c-4.140625 0-7.5-3.355469-7.5-7.5s3.359375-7.5 7.5-7.5h70.898437c4.144532 0 7.5 3.355469 7.5 7.5s-3.355468 7.5-7.5 7.5zm0 0" fill="#8181fc"/><path d="m209.417969 383.445312h-134.992188c-6.601562 0-12-5.398437-12-12v-194.375c0-6.601562 5.398438-12 12-12h134.988281c6.601563 0 12 5.398438 12 12v194.375c.003907 6.601563-5.398437 12-11.996093 12zm0 0" fill="#4fbbff"/><path d="m74.425781 165.070312c-6.601562 0-12 5.398438-12 12v194.375c0 6.601563 5.398438 12 12 12h38.867188c.113281-4.148437 3.664062-6.800781 3.664062-6.800781s16.664063-10.335937-5-26.195312c-21.667969-15.859375 1.664063-31.585938 1.664063-31.585938s27.167968-17.71875 4.253906-36.71875c-17.605469-14.597656-8.730469-27.371093-3.667969-32.507812 1.515625-1.539063 1.921875-3.851563 1.066407-5.832031-5.933594-13.769532-1.484376-21.839844 1.886718-25.542969 1.527344-1.679688 1.8125-4.132813.734375-6.128907-10.980469-20.347656-3.320312-31.875 1.871094-36.757812 1.699219-1.597656 2.21875-4.105469 1.195313-6.203125-.699219-1.433594-.945313-2.816406-.929688-4.101563zm0 0" fill="#27a3ff"/><path d="m192.734375 249.261719c-4.070313 6.828125-11.523437 11.414062-20.03125 11.414062-12.847656 0-23.300781-10.453125-23.300781-23.304687 0-1.097656.082031-2.175782.230468-3.234375-1.273437-.949219-2.554687-1.933594-3.835937-2.988281-19.382813-15.90625-37.980469-20.609376-53.421875-20.460938-11.8125.117188-21.6875 2.964844-29.949219 6.925781v153.832031c0 6.601563 5.398438 12 12 12h134.988281c6.601563 0 12-5.398437 12-12v-130.128906c-7.96875 4.242188-17.679687 7.632813-28.679687 7.945313zm0 0" fill="#27a3ff"/><path d="m116.953125 376.640625s16.667969-10.332031-5-26.191406c-21.664063-15.859375 1.667969-31.585938 1.667969-31.585938s27.167968-17.722656 4.25-36.722656c-17.601563-14.597656-8.726563-27.367187-3.667969-32.503906 1.519531-1.539063 1.921875-3.851563 1.066406-5.835938-5.929687-13.765625-1.480469-21.835937 1.890625-25.542969.785156-.863281 1.234375-1.929687 1.347656-3.035156-9.332031-3.386718-18.15625-4.613281-26.132812-4.535156-11.8125.117188-21.6875 2.964844-29.949219 6.925781v153.832031c0 6.601563 5.398438 12 12 12h38.863281c.117188-4.152343 3.664063-6.804687 3.664063-6.804687zm0 0" fill="#0080f4"/><path d="m210.214844 283.398438c-6.527344-6.527344-17.105469-6.527344-23.632813 0l-11.589843 11.589843c-2.851563 2.851563-7.476563 2.851563-10.328126 0l-47.753906-47.753906c-7.210937-7.207031-18.898437-7.207031-26.105468 0l-28.378907 28.378906v95.832031c0 6.601563 5.398438 12 12 12h134.992188c6.597656 0 12-5.398437 12-12v-76.84375zm0 0" fill="#a2ec00"/><path d="m116.953125 376.640625s16.667969-10.332031-5-26.191406c-21.664063-15.859375 1.667969-31.585938 1.667969-31.585938s27.167968-17.722656 4.25-36.722656c-17.601563-14.597656-8.726563-27.367187-3.667969-32.503906.941406-.953125 1.453125-2.203125 1.503906-3.492188-7.253906-6.089843-18.082031-5.734375-24.902343 1.089844l-28.378907 28.378906v95.832031c0 6.601563 5.398438 12 12 12h38.867188c.113281-4.152343 3.660156-6.804687 3.660156-6.804687zm0 0" fill="#00c82f"/><path d="m148.410156 336.726562c-37.890625-29.1875-62.886718-20.214843-85.984375-5.835937v40.554687c0 6.601563 5.398438 12 12 12h134.992188c6.597656 0 12-5.398437 12-12v-33.121093c-16.976563 14-41.894531 22.367187-73.007813-1.597657zm0 0" fill="#00c82f"/><path d="m116.953125 376.640625s16.667969-10.332031-5-26.191406c-21.617187-15.828125 1.566406-31.519531 1.664063-31.585938-19.972657-4.550781-35.996094 2.566407-51.191407 12.027344v40.554687c0 6.601563 5.398438 12 12 12h38.863281c.117188-4.152343 3.664063-6.804687 3.664063-6.804687zm0 0" fill="#02ad22"/><path d="m197 237.371094c0 13.417968-10.875 24.296875-24.296875 24.296875-13.417969 0-24.292969-10.878907-24.292969-24.296875 0-13.417969 10.875-24.296875 24.292969-24.296875 13.421875 0 24.296875 10.878906 24.296875 24.296875zm0 0" fill="#fecd0a"/><path d="m168.976562 213.359375c-11.648437 1.796875-20.566406 11.863281-20.566406 24.011719 0 13.417968 10.875 24.296875 24.292969 24.296875 8.773437 0 16.457031-4.648438 20.730469-11.617188-20.5625 3.167969-35.15625-19.230469-24.457032-36.691406zm0 0" fill="#fca60d"/><path d="m209.417969 390.945312h-134.992188c-10.753906 0-19.5-8.746093-19.5-19.5v-194.375c0-10.753906 8.746094-19.5 19.5-19.5h134.988281c10.753907 0 19.5 8.746094 19.5 19.5v194.375c.003907 10.753907-8.746093 19.5-19.496093 19.5zm-134.992188-218.375c-2.441406 0-4.5 2.058594-4.5 4.5v194.375c0 2.441407 2.058594 4.5 4.5 4.5h134.988281c2.441407 0 4.5-2.058593 4.5-4.5v-194.375c0-2.441406-2.058593-4.5-4.5-4.5zm0 0" fill="#aeaeff"/><path d="m116.953125 376.640625s.386719-.238281.957031-.695313h-43.484375c-2.441406 0-4.5-2.058593-4.5-4.5v-194.375c0-2.441406 2.058594-4.5 4.5-4.5h46.929688c.246093-1.121093.136719-2.3125-.394531-3.398437-2.730469-5.585937 1.199218-10.449219 2.25-11.601563h-48.785157c-10.753906 0-19.5 8.746094-19.5 19.5v194.375c0 10.753907 8.746094 19.5 19.5 19.5h42.421875c-8.0625-8.191406.105469-14.304687.105469-14.304687zm0 0" fill="#8181fc"/><path d="m436.140625 31.773438h-52.667969c-4.144531 0-7.5-3.355469-7.5-7.5 0-4.140626 3.355469-7.5 7.5-7.5h52.667969c4.140625 0 7.5 3.359374 7.5 7.5 0 4.144531-3.359375 7.5-7.5 7.5zm0 0" fill="#aeaeff"/><path d="m345.792969 31.773438h-183.847657c-4.140624 0-7.5-3.355469-7.5-7.5 0-4.140626 3.359376-7.5 7.5-7.5h183.847657c4.140625 0 7.5 3.359374 7.5 7.5 0 4.144531-3.355469 7.5-7.5 7.5zm0 0" fill="#aeaeff"/><path d="m304.320312 24.273438c0-4.140626 3.359376-7.5 7.5-7.5h-149.875c-4.140624 0-7.5 3.359374-7.5 7.5 0 4.144531 3.359376 7.5 7.5 7.5h149.875c-4.140624 0-7.5-3.355469-7.5-7.5zm0 0" fill="#8181fc"/></svg>