<svg height="512" viewBox="0 0 58 54" width="512" xmlns="http://www.w3.org/2000/svg"><g id="Page-1" fill="none" fill-rule="evenodd"><g id="026---Troubleshooting" fill-rule="nonzero"><path id="Rectangle-path" d="m17 30.356h10v10.357h-10z" fill="#2980ba"/><path id="Rectangle-path" d="m44.335 34.124h4.657v7.943h-4.657z" fill="#3f5c6c" transform="matrix(-.858 .513 -.513 -.858 106.261 46.857)"/><path id="Shape" d="m44 4.03v2.45l-11.22 18.55-32.78000015 1.5.00000015-22.5c-.00029188-1.06095541.42104175-2.07854066 1.17125054-2.82874946.7502088-.75020879 1.76779405-1.17154242 2.82874946-1.17125054h36c.3205337-.00141664.6398866.03892268.95.12.5590019.12891805 1.081885.38181575 1.53.74.9624651.75731924 1.5230218 1.91531133 1.52 3.14z" fill="#35495e"/><path id="Shape" d="m40.95.15c-9.97.57-40.95 4.03-40.95000015 24.88l.00000015-21c-.00029188-1.06095541.42104175-2.07854066 1.17125054-2.82874946.7502088-.75020879 1.76779405-1.17154242 2.82874946-1.17125054h36c.3205337-.00141664.6398866.03892268.95.12z" fill="#3f5c6c"/><path id="Shape" d="m32.78 25.03-4.84 8h-23.94c-1.06095541.0002919-2.07854066-.4210417-2.82874946-1.1712505-.75020879-.7502088-1.17154242-1.7677941-1.17125054-2.8287495l-.00000015-4z" fill="#3b97d3"/><path id="Shape" d="m39.9258 34.3761 1.0229 1.7223.3942.66c.4407854.7353305 1.3935176.975258 2.13.5364l3.9967-2.395c.3527027-.2102289.6072725-.5521454.707547-.9503167s.0380136-.8198777-.173047-1.1720833l-1.43-2.3931-.0169-.0282z" fill="#d25627"/><path id="Shape" d="m50.58 23.28c-1.5156185 6.0544289-6.5115702 10.6112602-12.6795121 11.5650431-6.1679419.953783-12.3069293-1.8811911-15.5804879-7.1950431 4.8222-15.2266 12.5745-16.79 22.53-20.57.903121.68373719 1.731095 1.4614294 2.47 2.32 3.2790282 3.8213041 4.4949946 8.9984859 3.26 13.88z" fill="#90bae1"/><path id="Shape" d="m56.76 47.43-2.74 2.9362-3.92 1.0438-4.55-7.61c-.5642408-.9474398-.2556666-2.1727924.69-2.74l3.23-1.93c.4543124-.2740056.9992312-.3552521 1.5137145-.2256924s.9559312.4591978 1.2262855.9156924z" fill="#e57e25"/><path id="Shape" d="m57.04 51.79-3.23 1.93c-.948001.5603815-2.1704703.2525334-2.74-.69l-.97-1.62 6.66-3.98.97 1.61c.5589599.9513722.2518893 2.1752045-.69 2.75z" fill="#f29c1f"/><path id="Shape" d="m15 38.0342h14c1.6568542 0 3 1.3431458 3 3 0 .5522847-.4477153 1-1 1h-18c-.5522847 0-1-.4477153-1-1 0-1.6568542 1.3431458-3 3-3z" fill="#3b97d3"/><path id="Shape" d="m44.85 7.08c-7.48 2.84-18.85 8.95-22.53 20.57-3.9204502-6.3490941-2.7690291-14.5892557 2.7416299-19.62051431 5.510659-5.03125856 13.8213162-5.43002056 19.7883701-.94948569z" fill="#b0d3f0"/><path id="Shape" d="m35.5557 36.0229c-1.3705589-.0005126-2.7357802-.1707412-4.0645-.5068-8.8486557-2.2286302-14.2154468-11.2083225-11.9873-20.0571 2.104459-8.32777792 10.2405618-13.65264214 18.714526-12.24816254 8.4739643 1.40447961 14.45712 9.06947774 13.7623536 17.63089884-.6947664 8.5614212-7.835537 15.1614018-16.4250796 15.1811637zm-.0284-31.0529c-6.6522122.0088029-12.4510986 4.52858194-14.0839 10.9773-1.5104045 6.0100964.9613548 12.3162423 6.1534708 15.6992163 5.1921159 3.382974 11.9593191 3.0965646 16.8470234-.7130191 4.8877042-3.8095837 6.8177869-10.3020294 4.804961-16.1630116-2.0128259-5.86098221-7.5245742-9.79769414-13.7215552-9.8004856z" fill="#f29c1f"/><g fill="#e64c3c"><path id="Shape" d="m40 26.569v2.93c0 .2954171-.2394829.5349-.5349.5349h-7.93c-.2953781.0001105-.5349344-.2392219-.5351-.5346v-2.93c0-.1418551.0563586-.2778987.1566746-.3781961.1003161-.1002973.2363703-.1566304.3782254-.1566039h1.4651v-6h-.4651c-.1419163 0-.2780157-.0563965-.3783375-.1567746-.1003219-.1003781-.1566421-.2365091-.1565625-.3784254v-2.93c0-.1418551.0563586-.2778987.1566746-.3781961.1003161-.1002973.2363703-.1566304.3782254-.1566039h4.93c.1418378-.0000796.2778979.0561889.3782486.1564271s.1567719.2362351.1568514.3780729v9.4652h1.4651c.1418551-.0000265.2779093.0563066.3782254.1566039.100316.1002974.1566746.236341.1566746.3781961z"/><circle id="Oval" cx="35.5" cy="10.534" r="2.5"/></g></g></g></svg>