<svg width="590" height="263" viewBox="0 0 590 263" fill="none" xmlns="http://www.w3.org/2000/svg">
<rect x="74.51" y="182.612" width="137.49" height="80.2763" rx="24" fill="#0A7D1E"/>
<rect x="35.8901" y="191.109" width="4.87867" height="43.4645" rx="2.43934" transform="rotate(37.5 35.8901 191.109)" fill="#C4C4C4"/>
<rect x="42.1897" y="166.873" width="24.8369" height="30.1591" rx="12.4184" transform="rotate(37.5 42.1897 166.873)" fill="#0C77A5"/>
<path d="M127.489 41.1351L161.268 67.0546L88.9095 161.354L55.1305 135.435L127.489 41.1351Z" fill="#91D3F9"/>
<path d="M55.1313 135.435L88.9104 161.354L76.3148 177.769C69.2544 186.97 56.0717 188.706 46.8704 181.645L46.4122 181.294C37.2109 174.233 35.4754 161.051 42.5358 151.849L55.1313 135.435Z" fill="#3A8D06"/>
<rect x="119.167" y="23.5678" width="76.851" height="17.8408" rx="8.92038" transform="rotate(37.5 119.167 23.5678)" fill="#0794BC"/>
<rect x="163.146" y="9.23712" width="24.8369" height="38.1423" transform="rotate(37.5 163.146 9.23712)" fill="#89AFB8"/>
<path d="M111.29 62.247L121.846 70.3469C123.401 71.5398 123.694 73.7671 122.501 75.3217V75.3217C121.308 76.8764 119.081 77.1696 117.526 75.9767L106.97 67.8768L111.29 62.247Z" fill="#2287CE"/>
<path d="M100.842 76.5914L111.398 84.6913C112.952 85.8842 113.246 88.1115 112.053 89.6662V89.6662C110.86 91.2208 108.632 91.514 107.078 90.3211L96.5219 82.2213L100.842 76.5914Z" fill="#2287CE"/>
<path d="M89.9604 90.0441L100.516 98.144C102.071 99.3369 102.364 101.564 101.171 103.119V103.119C99.9784 104.673 97.7511 104.967 96.1965 103.774L85.6405 95.674L89.9604 90.0441Z" fill="#2287CE"/>
<path d="M78.6196 104.822L89.1756 112.922C90.7302 114.115 91.0234 116.343 89.8305 117.897V117.897C88.6376 119.452 86.4103 119.745 84.8556 118.552L74.2997 110.452L78.6196 104.822Z" fill="#2287CE"/>
<g filter="url(#filter0_d)">
<path d="M123.663 221.846V210.506L120.747 210.146C120.651 209.786 120.651 209.342 120.747 208.814C122.067 208.91 123.711 208.958 125.679 208.958C127.455 208.958 129.111 208.922 130.647 208.85C130.791 209.282 130.791 209.714 130.647 210.146L127.659 210.578C127.563 211.49 127.515 212.894 127.515 214.79V235.994L130.431 236.354C130.527 236.714 130.527 237.158 130.431 237.686C128.919 237.614 127.275 237.578 125.499 237.578C124.203 237.578 122.547 237.602 120.531 237.65C120.387 237.218 120.387 236.786 120.531 236.354L123.519 235.922C123.615 235.01 123.663 233.606 123.663 231.71V223.646H109.479V235.994L112.395 236.354C112.491 236.714 112.491 237.158 112.395 237.686C110.883 237.614 109.239 237.578 107.463 237.578C106.167 237.578 104.511 237.602 102.495 237.65C102.351 237.218 102.351 236.786 102.495 236.354L105.483 235.922C105.579 235.01 105.627 233.606 105.627 231.71V210.506L102.711 210.146C102.615 209.786 102.615 209.342 102.711 208.814C104.031 208.91 105.675 208.958 107.643 208.958C109.395 208.958 111.051 208.922 112.611 208.85C112.755 209.282 112.755 209.714 112.611 210.146L109.623 210.578C109.527 211.49 109.479 212.894 109.479 214.79V221.846H123.663ZM158.716 227.93V214.898C158.716 213.002 158.668 211.598 158.572 210.686L155.224 210.254C155.08 209.822 155.08 209.39 155.224 208.958C156.736 209.03 158.2 209.066 159.616 209.066C161.176 209.066 162.628 209.018 163.972 208.922C164.068 209.45 164.068 209.894 163.972 210.254L160.696 210.614V237.578H158.788L142.912 216.086C142.168 215.102 141.292 213.818 140.284 212.234C140.404 213.338 140.464 214.67 140.464 216.23V231.71C140.464 233.606 140.512 235.01 140.608 235.922L143.956 236.354C144.1 236.786 144.1 237.218 143.956 237.65C141.892 237.602 140.428 237.578 139.564 237.578C138.148 237.578 136.696 237.614 135.208 237.686C135.112 237.158 135.112 236.714 135.208 236.354L138.484 235.994V214.79C138.484 212.894 138.436 211.49 138.34 210.578L135.352 210.146C135.208 209.738 135.208 209.33 135.352 208.922H142.408L156.844 228.578C157.036 228.842 157.24 229.154 157.456 229.514C157.696 229.874 157.948 230.306 158.212 230.81C158.5 231.314 158.728 231.698 158.896 231.962C158.776 230.522 158.716 229.178 158.716 227.93ZM172.454 235.094C173.846 236.054 175.802 236.534 178.322 236.534C180.026 236.534 181.298 236.042 182.138 235.058C183.002 234.074 183.434 232.898 183.434 231.53C183.434 230.81 183.374 230.21 183.254 229.73C183.134 229.226 182.87 228.662 182.462 228.038C182.078 227.414 181.454 226.79 180.59 226.166C179.726 225.542 178.598 224.882 177.206 224.186C175.574 223.37 174.254 222.602 173.246 221.882C172.238 221.162 171.482 220.418 170.978 219.65C170.474 218.882 170.138 218.15 169.97 217.454C169.802 216.758 169.718 215.894 169.718 214.862C169.718 212.75 170.558 211.118 172.238 209.966C173.942 208.79 175.946 208.202 178.25 208.202C181.106 208.202 183.866 208.922 186.53 210.362V217.274C185.714 217.418 185.03 217.418 184.478 217.274L183.326 211.046C181.79 210.206 180.074 209.786 178.178 209.786C176.906 209.786 175.826 210.17 174.938 210.938C174.074 211.682 173.642 212.738 173.642 214.106C173.642 214.874 173.69 215.474 173.786 215.906C173.882 216.338 174.122 216.854 174.506 217.454C174.89 218.03 175.526 218.618 176.414 219.218C177.302 219.794 178.49 220.442 179.978 221.162C185.114 223.658 187.682 226.634 187.682 230.09C187.682 232.538 186.746 234.518 184.874 236.03C183.002 237.542 180.554 238.298 177.53 238.298C174.53 238.298 171.77 237.59 169.25 236.174V229.262C170.066 229.118 170.75 229.118 171.302 229.262L172.454 235.094Z" fill="#EDEDED" fill-opacity="0.88"/>
</g>
<path d="M47.8997 124.056C47.8997 136.31 37.177 146.243 23.9498 146.243C10.7227 146.243 0 136.31 0 124.056C0 111.803 18.534 76.1679 23.9498 76.1679C29.3656 76.1679 47.8997 111.803 47.8997 124.056Z" fill="#0A7D1E"/>
<path d="M47.8997 124.056C47.8997 136.31 37.177 146.243 23.9498 146.243C10.7227 146.243 0 136.31 0 124.056C0 111.803 18.534 76.1679 23.9498 76.1679C29.3656 76.1679 47.8997 111.803 47.8997 124.056Z" fill="#4A8E56" fill-opacity="0.72"/>
<path d="M5.38794 120.506C6.0312 130.123 13.43 140.544 22.7528 138.493" stroke="#FFF8F8" stroke-opacity="0.42" stroke-width="9" stroke-linecap="round" stroke-linejoin="round"/>
<rect x="154.022" width="51.0043" height="15.9666" rx="7.98328" transform="rotate(37.5 154.022 0)" fill="#0794BC"/>
<path d="M281.258 135.558H313.742V105.2C316.514 105.297 319.124 105.458 321.573 105.684C324.022 105.909 326.198 106.151 328.099 106.409C330.291 106.699 332.337 107.005 334.238 107.327V119.702C332.981 119.315 331.596 118.961 330.081 118.639C328.566 118.284 326.987 117.962 325.344 117.672V165.528C328.889 164.948 331.854 164.271 334.238 163.498V175.776C331.918 176.163 329.791 176.485 327.857 176.743C325.924 177.001 324.135 177.21 322.492 177.372C320.848 177.533 319.301 177.662 317.851 177.758C316.433 177.855 315.063 177.936 313.742 178V147.256H281.258V178C279.937 177.936 278.551 177.855 277.101 177.758C275.683 177.662 274.152 177.533 272.508 177.372C270.865 177.21 269.076 177.001 267.143 176.743C265.209 176.485 263.082 176.163 260.762 175.776V163.498C262.019 163.885 263.372 164.255 264.822 164.61C266.305 164.932 267.916 165.238 269.656 165.528V117.672C266.305 118.252 263.34 118.929 260.762 119.702V107.327C262.599 107.005 264.629 106.699 266.853 106.409C268.722 106.151 270.897 105.909 273.378 105.684C275.86 105.458 278.486 105.297 281.258 105.2V135.558Z" fill="#6A46B8"/>
<path d="M413.694 158.954V105.104C416.465 105.2 419.06 105.377 421.477 105.635C423.926 105.861 426.085 106.103 427.954 106.36C430.113 106.683 432.127 107.005 433.997 107.327V119.605C431.418 118.832 428.454 118.155 425.102 117.575V166.302C426.842 166.044 428.438 165.738 429.888 165.383C431.37 165.029 432.74 164.658 433.997 164.271V175.68C431.676 176.066 429.565 176.389 427.664 176.646C425.763 176.904 423.99 177.114 422.347 177.275C420.735 177.436 419.221 177.565 417.803 177.662C416.385 177.758 415.015 177.839 413.694 177.903L381.306 124.149V177.903C379.985 177.839 378.615 177.758 377.197 177.662C375.779 177.565 374.265 177.436 372.653 177.275C371.042 177.114 369.286 176.904 367.384 176.646C365.483 176.389 363.388 176.066 361.1 175.68V163.401C363.485 164.175 366.45 164.852 369.995 165.432V116.608C368.287 116.898 366.691 117.221 365.209 117.575C363.727 117.93 362.357 118.284 361.1 118.639V107.327C362.905 107.005 364.887 106.683 367.046 106.36C368.883 106.103 371.026 105.861 373.475 105.635C375.924 105.377 378.535 105.2 381.306 105.104L413.694 158.954Z" fill="#066A16"/>
<path d="M502.597 102.33C506.979 102.33 511.217 102.604 515.31 103.152C519.435 103.667 523.125 104.57 526.38 105.859C529.667 107.116 532.358 108.824 534.453 110.983C536.58 113.142 537.82 115.833 538.175 119.056L525.606 122.536C525.606 120.603 524.946 119.023 523.625 117.799C522.335 116.542 520.611 115.559 518.452 114.85C516.325 114.109 513.876 113.593 511.104 113.303C508.365 113.013 505.529 112.868 502.597 112.868C499.729 112.868 496.909 112.997 494.137 113.255C491.366 113.513 488.868 113.996 486.645 114.705C484.453 115.414 482.681 116.397 481.327 117.654C479.974 118.911 479.297 120.538 479.297 122.536V134.041H538.175V159.081C538.175 161.24 537.691 163.174 536.725 164.882C535.79 166.558 534.485 168.024 532.809 169.281C531.166 170.505 529.2 171.553 526.912 172.423C524.656 173.261 522.207 173.938 519.564 174.453C516.954 174.969 514.198 175.339 511.298 175.565C508.397 175.791 505.497 175.903 502.597 175.903C499.632 175.903 496.715 175.791 493.847 175.565C490.979 175.339 488.256 174.969 485.678 174.453C483.1 173.938 480.699 173.261 478.475 172.423C476.284 171.553 474.35 170.505 472.674 169.281C470.999 168.024 469.645 166.558 468.614 164.882C467.583 163.206 466.954 161.272 466.729 159.081L479.297 155.601C479.297 157.599 479.974 159.226 481.327 160.483C482.681 161.74 484.453 162.723 486.645 163.432C488.868 164.141 491.366 164.624 494.137 164.882C496.909 165.14 499.729 165.269 502.597 165.269C505.529 165.269 508.365 165.14 511.104 164.882C513.876 164.592 516.325 164.092 518.452 163.383C520.611 162.642 522.335 161.643 523.625 160.386C524.946 159.129 525.606 157.534 525.606 155.601V143.806H466.729V119.056C466.729 116.896 467.196 114.995 468.13 113.352C469.097 111.676 470.402 110.226 472.046 109.001C473.722 107.744 475.704 106.697 477.992 105.859C480.28 104.989 482.745 104.296 485.388 103.78C488.062 103.265 490.85 102.894 493.75 102.668C496.683 102.443 499.632 102.33 502.597 102.33Z" fill="#B66D00"/>
<defs>
<filter id="filter0_d" x="98.3865" y="208.202" width="93.2952" height="38.096" filterUnits="userSpaceOnUse" color-interpolation-filters="sRGB">
<feFlood flood-opacity="0" result="BackgroundImageFix"/>
<feColorMatrix in="SourceAlpha" type="matrix" values="0 0 0 0 0 0 0 0 0 0 0 0 0 0 0 0 0 0 127 0"/>
<feOffset dy="4"/>
<feGaussianBlur stdDeviation="2"/>
<feColorMatrix type="matrix" values="0 0 0 0 0 0 0 0 0 0 0 0 0 0 0 0 0 0 0.25 0"/>
<feBlend mode="normal" in2="BackgroundImageFix" result="effect1_dropShadow"/>
<feBlend mode="normal" in="SourceGraphic" in2="effect1_dropShadow" result="shape"/>
</filter>
</defs>
</svg>
