<svg height="451pt" viewBox="0 0 451.64193 451" width="451pt" xmlns="http://www.w3.org/2000/svg"><path d="m282.546875 293.980469 11.316406-11.3125 32.800781 32.800781-11.316406 11.3125zm0 0" fill="#f4b844"/><path d="m169.5.320312c93.609375 0 169.5 75.839844 169.5 169.402344 0 93.558594-75.890625 169.398438-169.5 169.398438s-169.5-75.839844-169.5-169.398438c0-93.5625 75.890625-169.402344 169.5-169.402344zm135.109375 169.402344c.0625-74.636718-60.402344-135.179687-135.035156-135.222656-74.632813-.039062-135.164063 60.441406-135.183594 135.074219-.019531 74.632812 60.476563 135.148437 135.109375 135.148437 74.589844.027344 135.082031-60.414062 135.109375-135zm0 0" fill="#00acea"/><path d="m169.5 34.722656c74.542969.058594 134.929688 60.527344 134.890625 135.070313-.042969 74.546875-60.492187 134.949219-135.039063 134.929687-74.542968-.023437-134.960937-60.457031-134.960937-135 .027344-74.589844 60.519531-135.03125 135.109375-135zm0 0" fill="#00efd1"/><path d="m238.460938 114.449219 27.339843 73.273437h-54.671875zm0 0" fill="#00efd1"/><path d="m97.539062 114.449219 27.339844 73.273437h-54.667968zm0 0" fill="#00efd1"/><path d="m109.378906 123.289062h45.609375c4.421875 0 8-3.578124 8-8 0-4.417968-3.578125-8-8-8h-53.882812c-.039063-.019531-.085938-.035156-.128907-.054687-.136718-.066406-.277343-.125-.417968-.183594-.074219-.03125-.148438-.066406-.222656-.097656-.027344-.011719-.054688-.015625-.082032-.027344-.152344-.054687-.308594-.101562-.460937-.144531-.101563-.03125-.199219-.066406-.304688-.089844-.140625-.035156-.285156-.0625-.429687-.089844-.117188-.023437-.234375-.050781-.351563-.066406-.117187-.019531-.25-.027344-.375-.042968-.125-.011719-.273437-.027344-.410156-.035157-.105469-.007812-.214844 0-.320313 0-.15625 0-.3125 0-.464843 0-.09375.003907-.1875.019531-.28125.027344-.167969.011719-.335938.027344-.5.050781-.085938.015625-.167969.035156-.253907.050782-.175781.03125-.351562.0625-.523437.109374-.082031.019532-.164063.046876-.246094.070313-.171875.050781-.34375.101563-.515625.164063-.023437.007812-.046875.011718-.070312.023437-.066406.023437-.128906.058594-.199219.082031-.15625.0625-.308594.125-.457031.203125-.101563.046875-.199219.097657-.300782.152344-.128906.070313-.257812.136719-.382812.214844-.105469.0625-.207031.128906-.308594.199219-.105468.070312-.226562.152343-.335937.230468-.109375.082032-.199219.15625-.292969.234375s-.207031.171875-.308594.265625c-.101562.089844-.175781.164063-.261718.25-.101563.101563-.199219.199219-.292969.300782-.078125.085937-.152344.175781-.226563.265624-.089844.109376-.179687.222657-.265625.335938-.070312.097656-.136719.191406-.203125.289062-.074218.117188-.152344.234376-.226562.355469-.070313.121094-.125.226563-.1875.339844s-.121094.222656-.175782.339844c-.066406.136719-.125.277343-.179687.417969-.03125.074218-.066406.144531-.09375.21875l-27.332031 73.273437c-.015625.039063-.03125.082031-.046875.125l-.050781.136719c-1.472657 4.167968.707031 8.738281 4.871093 10.214844 4.164063 1.472656 8.738281-.707032 10.210938-4.871094l19.839843-53.195313 19.816407 53.101563.050781.140625c1.519531 4.128906 6.085938 6.253906 10.222656 4.761719 4.136719-1.496094 6.292969-6.046876 4.824219-10.195313zm0 0" fill="#fedb41"/><path d="m273.375 185.144531-27.421875-73.492187c-.027344-.078125-.066406-.152344-.097656-.230469-.054688-.136719-.113281-.273437-.175781-.40625-.054688-.117187-.117188-.230469-.175782-.34375-.0625-.113281-.121094-.226563-.191406-.335937-.066406-.109376-.148438-.234376-.222656-.351563-.066406-.097656-.136719-.199219-.199219-.292969-.085937-.113281-.171875-.222656-.261719-.332031-.078125-.089844-.15625-.183594-.238281-.273437-.082031-.089844-.179687-.199219-.277344-.289063-.09375-.089844-.183593-.183594-.277343-.269531-.097657-.085938-.191407-.164063-.289063-.246094-.097656-.078125-.207031-.167969-.316406-.25s-.199219-.144531-.308594-.214844c-.105469-.070312-.222656-.148437-.335937-.214844-.117188-.070312-.234376-.132812-.351563-.203124-.117187-.066407-.21875-.117188-.332031-.167969-.136719-.066407-.277344-.125-.421875-.183594-.074219-.03125-.144531-.066406-.21875-.097656-.027344-.011719-.058594-.015625-.085938-.027344-.148437-.054687-.296875-.101563-.457031-.144531-.101562-.03125-.199219-.066406-.308594-.089844-.140625-.035156-.28125-.0625-.425781-.089844-.117187-.023437-.234375-.050781-.351563-.066406-.121093-.019531-.246093-.027344-.371093-.039062-.125-.011719-.277344-.035157-.414063-.039063-.105468-.007813-.214844 0-.324218 0-.152344 0-.304688 0-.460938 0-.09375.003906-.191406.019531-.285156.027344-.167969.011719-.332032.027343-.5.050781-.089844.015625-.175782.035156-.265625.050781-.171875.03125-.34375.066407-.511719.105469-.085938.023438-.171875.050781-.257812.078125-.167969.046875-.335938.097656-.5.160156-.027344.007813-.050782.011719-.078126.023438-.070312.023437-.136718.058593-.199218.085937-.148438.0625-.300782.121094-.441406.191406-.042969.019532-.085938.035157-.125.054688h-53.910157c-4.417969 0-8 3.582031-8 8 0 4.421875 3.582031 8 8 8h45.636719l-22.988281 61.636719c-.019531.039062-.035157.082031-.046875.125l-.050782.140625c-1.476562 4.164062.707032 8.734375 4.871094 10.210937 4.164063 1.472657 8.734375-.707031 10.210938-4.871093l19.839844-53.195313 19.8125 53.101563.050781.140624c1.519531 4.128907 6.089843 6.253907 10.226562 4.761719 4.136719-1.492187 6.292969-6.046875 4.824219-10.195312zm0 0" fill="#fedb41"/><path d="m189.28125 227.289062h-13.292969v-102h-16v102h-13.269531c-4.417969 0-8 3.582032-8 8 0 4.421876 3.582031 8 8 8h42.5625c4.417969 0 8-3.578124 8-8 0-4.417968-3.582031-8-8-8zm0 0" fill="#fedb41"/><g fill="#00acea"><path d="m97.539062 221.722656c-21.8125 0-37.050781-13.984375-37.050781-34 0-4.421875 3.582031-8 8-8h58.320313c4.417968 0 8 3.578125 8 8 0 20.015625-15.324219 34-37.269532 34zm19.539063-26h-38.933594c3.425781 7.230469 11.613281 10 19.394531 10"/><path d="m238.25 221.722656c-21.816406 0-37.050781-13.984375-37.050781-34 0-4.421875 3.582031-8 8-8h58.320312c4.417969 0 8 3.578125 8 8 0 20.015625-15.328125 34-37.269531 34zm0 0"/><path d="m168 132.722656c-11.167969 0-20.21875-9.054687-20.21875-20.222656s9.050781-20.21875 20.21875-20.21875 20.21875 9.050781 20.21875 20.21875c-.011719 11.164062-9.058594 20.207031-20.21875 20.222656zm0 0"/></g><path d="m441.96875 395.691406c6.191406 6.171875 9.671875 14.554688 9.671875 23.300782 0 8.742187-3.480469 17.125-9.671875 23.296874-12.3125 12.292969-32.054688 12.90625-45.101562 1.402344-.5-.5-1-.902344-1.5-1.402344l-99.5-99.5 23.398437-23.398437 23.203125-23.199219zm0 0" fill="#fedb41"/></svg>