<svg height="512" viewBox="0 0 512 512" width="512" xmlns="http://www.w3.org/2000/svg"><g id="Flat"><g><path d="m432 24h16v96h-16z" fill="#9ae2f0"/><g><g><g><path d="m416 152h48v-16l-16-24h-16l-16 24z" fill="#fac850"/><path d="m400 440h80v-286a10 10 0 0 0 -10-10h-60a10 10 0 0 0 -10 10z" fill="#c9eff7"/><path d="m416 440h48v48h-48z" fill="#fac850" transform="matrix(-1 0 0 -1 880 928)"/><path d="m384 432h112v16h-112z" fill="#9ae2f0"/><g fill="#79d8eb"><path d="m448 280h32v16h-32z"/><path d="m448 376h32v16h-32z"/><path d="m432 328h48v16h-48z"/><path d="m448 184h32v16h-32z"/><path d="m432 232h48v16h-48z"/></g></g><path d="m392 480h96v16h-96z" fill="#9ae2f0"/></g><g><g><path d="m64 256v40l-32.4939 25.9951a20 20 0 0 0 -7.5061 15.6174v130.3875a20 20 0 0 0 20 20h104a20 20 0 0 0 20-20v-130.3875a20 20 0 0 0 -7.5061-15.6174l-32.4939-25.9951v-40z" fill="#c9eff7"/><path d="m24 352h144v96h-144z" fill="#79d8eb"/><path d="m74 200h44a10 10 0 0 1 10 10v22a0 0 0 0 1 0 0h-64a0 0 0 0 1 0 0v-22a10 10 0 0 1 10-10z" fill="#fac850"/><rect fill="#79d8eb" height="40" rx="10" width="96" x="48" y="224"/></g><path d="m120 392h-16v-16h-16v16h-16v16h16v16h16v-16h16z" fill="#fff9f8"/></g><g><g><path d="m240 200v40l-28.7409 22.9927a30 30 0 0 0 -11.2591 23.426v181.5813a20 20 0 0 0 20 20h128a20 20 0 0 0 20-20v-181.5813a30 30 0 0 0 -11.2591-23.426l-28.7409-22.9927v-40z" fill="#c9eff7"/><path d="m200 304h168v144h-168z" fill="#79d8eb"/><rect fill="#fac850" height="40" rx="10" width="120" x="224" y="168"/></g><circle cx="280" cy="376" fill="#fac850" r="40"/><path d="m304 368h-16v-16h-16v16h-16v16h16v16h16v-16h16z" fill="#fff9f8"/></g><g fill="#9ae2f0"><path d="m152 80 14.142 25.858 25.858 14.142-25.858 14.142-14.142 25.858-14.142-25.858-25.858-14.142 25.858-14.142z"/><path d="m260 24-9.899 18.101-18.101 9.899 18.101 9.899 9.899 18.101 9.899-18.101 18.101-9.899-18.101-9.899z"/></g></g></g></g></svg>