<svg height="512" viewBox="0 0 64 64" width="512" xmlns="http://www.w3.org/2000/svg"><g id="Email-2" data-name="Email"><path d="m53 19v16l-2 2h-1.11a18 18 0 0 0 -35.78 0h-1.11l-2-2v-30a2.006 2.006 0 0 1 2-2h38a2.006 2.006 0 0 1 2 2z" fill="#bddbff"/><path d="m42 50v1h-20v-1a5.768 5.768 0 0 1 3.74-5.4l4.26-1.6 2 2 2-2 4.25 1.59a5.766 5.766 0 0 1 3.75 5.4z" fill="#bddbff"/><path d="m38 31v2h-2l-2-2-3 2h-5v-2a6.009 6.009 0 0 1 6-6 6 6 0 0 1 6 6z" fill="#bddbff"/><g fill="#3d9ae2"><path d="m16 12h32v2h-32z"/><path d="m16 16h32v2h-32z"/><path d="m16 8h32v2h-32z"/><path d="m61.707 26.293-7.707-7.707v-13.586a3 3 0 0 0 -3-3h-38a3 3 0 0 0 -3 3v13.586l-7.707 7.707a1 1 0 0 0 -.293.707v32a3 3 0 0 0 3 3h54a3 3 0 0 0 3-3v-32a1 1 0 0 0 -.293-.707zm-2.121.707-5.586 5.586v-11.172zm-46.586-23h38a1 1 0 0 1 1 1v29.586l-1.281 1.281a18.975 18.975 0 0 0 -37.438 0l-1.281-1.281v-29.586a1 1 0 0 1 1-1zm36 35a17 17 0 1 1 -17-17 17.019 17.019 0 0 1 17 17zm-39-6.414-5.586-5.586 5.586-5.586zm49 27.414h-54a1 1 0 0 1 -1-1v-29.586l8.293 8.293a1 1 0 0 0 .707.293h.051c-.018.333-.051.662-.051 1a19 19 0 0 0 38 0c0-.338-.033-.667-.051-1h.051a1 1 0 0 0 .707-.293l8.293-8.293v29.586a1 1 0 0 1 -1 1z"/><path d="m38.6 43.653-3.6-1.346v-2.119a6 6 0 0 0 3-5.188v-1a1 1 0 0 0 1-1v-2a7 7 0 0 0 -14 0v2a1 1 0 0 0 1 1v1a6 6 0 0 0 3 5.188v2.12l-3.61 1.356a6.765 6.765 0 0 0 -4.39 6.336v1a1 1 0 0 0 1 1h20a1 1 0 0 0 1-1v-1.01a6.8 6.8 0 0 0 -4.4-6.337zm-11.6-12.653a5 5 0 0 1 10 0v1h-.586l-1.707-1.707a1 1 0 0 0 -1.262-.125l-2.745 1.832h-3.7zm1 3h3a1.006 1.006 0 0 0 .555-.168l2.318-1.545 1.42 1.42a1 1 0 0 0 .707.293v1a4 4 0 0 1 -8 0zm4 7a6 6 0 0 0 1-.09v1.676l-1 1-1-1v-1.676a6 6 0 0 0 1 .09zm-9 9a4.767 4.767 0 0 1 3.092-4.464l3.656-1.373 1.545 1.544a1 1 0 0 0 1.414 0l1.545-1.545 3.648 1.365a4.79 4.79 0 0 1 3.1 4.473z"/></g></g></svg>