<svg width="13" height="17" viewBox="0 0 13 17" fill="none" xmlns="http://www.w3.org/2000/svg">
<path d="M6.5 1.57657C8.46486 1.57657 9.72295 2.92297 10.533 4.73191C11.3429 6.54037 11.684 8.77141 11.8255 10.4439C11.9551 11.9763 12.2155 13.5125 12.7781 14.9549H0.221851C0.784464 13.5125 1.04486 11.9763 1.1745 10.4439C1.316 8.77141 1.6571 6.54037 2.46697 4.73191C3.27704 2.92297 4.53514 1.57657 6.5 1.57657Z" stroke="#3D66F4" stroke-width="0.3"/>
<path d="M7.36688 1.76935C7.39882 1.6701 7.41619 1.56328 7.41619 1.45201C7.41619 0.926231 7.02817 0.5 6.54953 0.5C6.07088 0.5 5.68286 0.926231 5.68286 1.45201C5.68286 1.56328 5.70024 1.6701 5.73218 1.76935" stroke="#3D66F4" stroke-width="0.3"/>
<path d="M8.11403 14.886C8.11403 15.9376 7.34923 16.79 6.40581 16.79C5.46239 16.79 4.6976 15.9376 4.6976 14.886" stroke="#3D66F4" stroke-width="0.3"/>
</svg>
