<svg id="Layer_1" enable-background="new 0 0 509.323 509.323" height="512" viewBox="0 0 509.323 509.323" width="512" xmlns="http://www.w3.org/2000/svg"><g><g id="XMLID_5076_"><path d="m46.812 471.323c-11.046 0-20-8.954-20-20v-165.762c0-11.046 8.954-20 20-20s20 8.954 20 20v165.762c0 11.045-8.955 20-20 20z" fill="#ffb69e"/></g><g id="XMLID_5075_"><path d="m110.148 471.323c-10.654 0-19.509-8.403-19.967-19.149l-3.634-85.307-20.182-76.185c-2.829-10.677 3.534-21.626 14.211-24.455 10.674-2.829 21.626 3.534 24.455 14.211l20.738 78.284c.37 1.396.587 2.828.649 4.271l3.727 87.478c.47 11.036-8.095 20.363-19.131 20.833-.29.013-.579.019-.866.019z" fill="#ffb69e"/></g><path id="XMLID_5074_" d="m109.15 141.16c-1.935-10.576-10.51-18.22-20.477-18.22-12.835 0-21.862 0-36.108 0-9.987 0-18.537 7.622-20.477 18.22l-31.916 174.434c-1.093 5.973 3.164 11.475 8.706 11.475h123.482c5.594 0 9.793-5.535 8.706-11.475z" fill="#ff6473"/><circle cx="70.619" cy="73.817" fill="#ffb69e" r="35.817"/><path id="XMLID_5072_" d="" style="fill:none;stroke:#000;stroke-width:41.476;stroke-linecap:round;stroke-linejoin:round;stroke-miterlimit:10"/><g><g><path d="m341.697 456.753c-5.748 0-10.407-4.659-10.407-10.407v-85.813c0-5.748 4.659-10.407 10.407-10.407s10.407 4.659 10.407 10.407v85.813c-.001 5.748-4.66 10.407-10.407 10.407z" fill="#55879b"/></g><path d="m341.582 435.295c-30.492 0-55.211 14.949-55.211 22.093s24.719 12.935 55.211 12.935 55.211-5.791 55.211-12.935-24.719-22.093-55.211-22.093z" fill="#6c9baa"/><g><g><path d="m288.026 337.075c-8.482 0-15.985-6.1-17.472-14.743-1.662-9.661 4.822-18.841 14.483-20.504l115.466-19.87c2.102-.361 4.249-.341 6.343.058l78.727 15.047c9.629 1.84 15.944 11.138 14.103 20.767-1.84 9.629-11.132 15.945-20.767 14.103l-75.561-14.442-112.29 19.323c-1.019.176-2.032.261-3.032.261z" fill="#414b82"/></g><g><path d="m272.674 344.579c-1.662-9.661 4.822-18.841 14.483-20.504l115.467-19.87c2.1-.361 4.25-.341 6.343.059l78.727 15.047c9.629 1.84 15.944 11.138 14.103 20.767-1.84 9.629-11.131 15.945-20.767 14.103l-75.562-14.442-112.29 19.323c-9.641 1.659-18.838-4.801-20.504-14.483z" fill="#5f6e9b"/></g><path d="m227.522 245.361c-10.111-4.331-21.819.354-26.151 10.465l-19.374 37.116c-4.331 10.111.354 21.819 10.465 26.151l93.12 39.581 49.636-65.398z" fill="#64afff"/><ellipse cx="149.328" cy="250.349" fill="#ffab8f" rx="34.935" ry="34.935" transform="matrix(.951 -.308 .308 .951 -69.935 58.263)"/><g id="XMLID_321_"><path d="m354.671 263.934c-3.558-7.986-12.913-11.578-20.903-8.019l-54.76 24.393-19.94-6.297-11.321 12.048 3.218 18.43 24.234 7.819c3.739 1.181 7.725.917 11.209-.635l60.244-26.837c7.986-3.557 11.577-12.916 8.019-20.902z" fill="#ffb69e"/><path d="m259.068 274.011-37.558-11.86c-8.337-2.633-17.23 1.992-19.863 10.329s1.991 17.231 10.329 19.864l38.989 12.147z" fill="#4699f2"/></g></g><g><path d="m276.516 386.651-149.283-64.922c-7.379-3.209-10.76-11.792-7.55-19.171 3.209-7.379 11.793-10.759 19.171-7.55l145.328 63.202 125.606-20.965c1.845-.308 3.733-.258 5.559.148l82.564 18.348c7.855 1.745 12.808 9.528 11.062 17.383-1.745 7.855-9.527 12.807-17.383 11.062l-79.798-17.733-127.067 21.208c-2.774.463-5.625.115-8.209-1.01z" fill="#b4d7dc"/></g></g><g id="XMLID_5069_"><path d="m160.859 229.496-48.401-21.285-8.95-19.929-20.833-4.051-11.805 16.539 12.51 27.856c1.77 3.94 4.938 7.083 8.891 8.822l54.543 23.986c8.81 3.874 19.108-.116 22.991-8.946 3.879-8.82-.127-19.114-8.946-22.992z" fill="#ffb69e"/></g><g id="XMLID_322_"><path d="m103.508 188.283-19.57-43.577c-3.947-8.789-14.272-12.715-23.061-8.767-8.789 3.947-12.714 14.271-8.767 23.06l18.759 41.77z" fill="#eb4b5b"/></g></g></svg>